<svg id="Layer_1" data-name="Layer 1" xmlns="http://www.w3.org/2000/svg" viewBox="0 0 2149.7 596.5" fill="#221f54"><path d="M808,144.52c85.4,0,150.2,65.29,150.2,150.78,0,33.94-10.3,64.44-27.89,88.49l28.32,27.93L917,453.39l-29.61-29.64A150.19,150.19,0,0,1,808,446.09c-85.41,0-150.21-65.3-150.21-150.79S722.63,144.52,808,144.52Zm0,240.57a66.23,66.23,0,0,0,32.18-8.17L799,335.25l41.62-42.1L884,337c7.29-11.6,11.16-26.2,11.16-41.67,0-49.4-37.77-89.78-87.12-89.78-49.78,0-87.55,40.38-87.55,89.78C720.49,345.13,758.26,385.09,808,385.09Z"/><path d="M1120.91,414.73c-10.73,18.47-29.19,31.36-56.22,31.36-45.06,0-74.68-34.37-74.68-80.34V227.43h58.37V349c0,24.05,13.73,39.95,36,39.95,21.46,0,35.19-14.6,36.48-36.94V227.43h58.36V441.36h-58.36Z"/><path d="M1319.76,223.13c62.65,0,111.15,48.54,111.15,111.26s-48.5,111.7-111.15,111.7-111.15-49-111.15-111.7S1257.1,223.13,1319.76,223.13Zm0,165.82c30,0,51.5-24.92,51.5-54.56s-21.46-54.12-51.5-54.12c-29.61,0-51.93,24.48-51.93,54.12S1290.15,389,1319.76,389Z"/><path d="M1518.61,250.63c10.3-15.9,26.6-27.5,50.64-27.5a109.52,109.52,0,0,1,16.73,1.29v62.29c-8.15-3.86-18.45-6.44-31.33-6.44-20.6,0-34.76,14.17-36,36.94V441.36h-58.37V227.43h58.37Z"/><path d="M1742.92,414.73c-10.73,18.47-29.19,31.36-56.22,31.36-45.06,0-74.67-34.37-74.67-80.34V227.43h58.36V349c0,24.05,13.73,39.95,36,39.95,21.46,0,35.19-14.6,36.48-36.94V227.43h58.37V441.36h-58.37Z"/><path d="M1891.56,252.77c11.16-17.18,29.18-29.64,54.5-29.64,30,0,53.64,13.75,65.66,38.66,10.3-21.9,30.9-38.66,63.09-38.66,41.2,0,73.38,32.65,73.38,78.62V441.36h-58.36V318.5c0-24.06-13.74-38.23-34.34-38.23-21,0-35.62,14.17-35.62,38.23V441.36h-58.36V318.5c0-24.06-13.73-38.23-34.33-38.23s-34.33,12.88-35.62,35.22V441.36h-58.37V227.43h58.37Z"/><path d="M527.43,408.71a244.5,244.5,0,0,0-204.18-36.08l-54.16,14.53h0a91.35,91.35,0,0,1-47.23-176.48,91.59,91.59,0,0,1,23.76-3.15,91.36,91.36,0,0,1,83.75,127.3,283.17,283.17,0,0,1,31-4.7,119,119,0,1,0-134.19,86.33,117.17,117.17,0,0,0,19.33,1.6A118.85,118.85,0,0,0,276.27,414h0l54.16-14.53a216.94,216.94,0,0,1,181.08,32,13.88,13.88,0,0,0,15.91-22.75Z" fill="#7259ef" /><path d="M355.91,494.61l-54.17,14.53a217.61,217.61,0,0,1-244.56-319,216,216,0,0,1,132-101.4c115.8-31.06,235.26,38,266.29,153.89a216.09,216.09,0,0,1,3.87,95.86,279,279,0,0,1,26.63,8.6,243.45,243.45,0,0,0-3.7-111.65C447.31,104.69,312.61,26.82,182,61.86a245.5,245.5,0,0,0-59.14,449.59,243.53,243.53,0,0,0,122.19,33A246.12,246.12,0,0,0,308.93,536l54.16-14.53a91.16,91.16,0,0,1,83.64,19.42,13.89,13.89,0,0,0,18.23-21A118.83,118.83,0,0,0,355.91,494.61Z" fill="#7259ef" /><path d="M511.58,474.79l-15.85-11.11-.06,0c-2.29-1.71-4.63-3.32-7-4.92-1.14-.76-2.27-1.52-3.42-2.25-1.6-1-3.22-2-4.85-3-1.45-.86-2.9-1.72-4.37-2.55-1.31-.74-2.64-1.46-4-2.17-1.82-1-3.65-1.92-5.49-2.82-1-.48-2-.94-2.94-1.4-2.21-1-4.44-2-6.68-3l-1.85-.76c-2.6-1.06-5.23-2.08-7.88-3l-.75-.26a180,180,0,0,0-77.23-9.27c-.58.06-1.15.15-1.73.21-2.69.29-5.38.61-8.06,1-1.85.29-3.69.65-5.53,1-1.44.27-2.89.49-4.33.79q-5,1-10,2.39l-54.16,14.53c-82.18,22.05-167-27-189-109.25s26.93-167.16,109.14-189.21,167,27,189,109.24a154.37,154.37,0,0,1,2.3,70.12,277.05,277.05,0,0,1,27.78,2.4,181.92,181.92,0,0,0-3.28-79.71c-26-97.08-126-154.9-223-128.88S43.6,249,69.58,346.09,195.62,501,292.6,475l54.17-14.53a153.48,153.48,0,0,1,132.67,25.72c.06.05.14.08.21.13s.1.1.16.14l15.85,11.11a13.89,13.89,0,0,0,15.92-22.76Z" fill="#7259ef"/></svg>
