<svg width="1282" height="245" viewBox="0 0 1282 245" fill="none" xmlns="http://www.w3.org/2000/svg">
<path d="M351.144 201.886C337.38 201.886 325.244 198.63 314.736 192.118C304.376 185.606 296.236 176.43 290.316 164.59C284.544 152.602 281.658 138.542 281.658 122.41C281.658 106.13 284.544 92.0701 290.316 80.2301C296.236 68.3901 304.376 59.2141 314.736 52.7021C325.244 46.1901 337.38 42.9341 351.144 42.9341C362.244 42.9341 372.234 45.0061 381.114 49.1501C390.142 53.2941 397.69 59.2141 403.758 66.9101C409.826 74.4581 413.97 83.5601 416.19 94.2161L385.776 102.652C384 92.7361 380.078 85.1141 374.01 79.7861C368.09 74.4581 360.394 71.7941 350.922 71.7941C339.526 71.7941 330.35 76.2341 323.394 85.1141C316.438 93.9941 312.96 106.426 312.96 122.41C312.96 138.246 316.438 150.678 323.394 159.706C330.35 168.586 339.526 173.026 350.922 173.026C360.69 173.026 368.608 170.362 374.676 165.034C380.744 159.558 384.666 151.788 386.442 141.724L416.856 150.16C414.488 160.964 410.27 170.214 404.202 177.91C398.134 185.606 390.586 191.526 381.558 195.67C372.678 199.814 362.54 201.886 351.144 201.886Z" fill="url(#paint0_linear_4880_17421)"/>
<path d="M491.367 201.886C477.307 201.886 464.949 198.704 454.293 192.34C443.785 185.976 435.497 176.874 429.429 165.034C423.509 153.194 420.549 138.986 420.549 122.41C420.549 105.834 423.509 91.6261 429.429 79.7861C435.497 67.7981 443.785 58.6961 454.293 52.4801C464.949 46.1161 477.307 42.9341 491.367 42.9341C505.427 42.9341 517.785 46.1161 528.441 52.4801C539.097 58.6961 547.385 67.7981 553.305 79.7861C559.373 91.6261 562.407 105.834 562.407 122.41C562.407 138.986 559.373 153.194 553.305 165.034C547.385 176.874 539.097 185.976 528.441 192.34C517.785 198.704 505.427 201.886 491.367 201.886ZM491.367 173.026C503.503 173.026 513.123 168.734 520.227 160.15C527.331 151.566 530.883 138.986 530.883 122.41C530.883 105.834 527.331 93.2541 520.227 84.6701C513.123 76.0861 503.503 71.7941 491.367 71.7941C479.379 71.7941 469.759 76.0861 462.507 84.6701C455.403 93.2541 451.851 105.834 451.851 122.41C451.851 138.986 455.403 151.566 462.507 160.15C469.759 168.734 479.379 173.026 491.367 173.026Z" fill="url(#paint1_linear_4880_17421)"/>
<path d="M635.393 199L595.655 45.8201H625.847L664.031 199H635.393ZM573.455 199V45.8201H602.759V199H573.455ZM650.933 199L687.119 45.8201H716.201L678.017 199H650.933ZM709.541 199V45.8201H740.177V199H709.541Z" fill="url(#paint2_linear_4880_17421)"/>
<path d="M771.203 149.716V121.078H815.603C825.963 121.078 833.437 119.154 838.025 115.306C842.761 111.31 845.129 105.464 845.129 97.7681C845.129 90.0721 842.761 84.3001 838.025 80.4521C833.437 76.4561 825.963 74.4581 815.603 74.4581H771.203V45.8201H817.601C830.181 45.8201 840.837 47.9661 849.569 52.2581C858.449 56.4021 865.183 62.3961 869.771 70.2401C874.359 77.9361 876.653 87.1121 876.653 97.7681C876.653 108.276 874.359 117.452 869.771 125.296C865.183 133.14 858.449 139.208 849.569 143.5C840.837 147.644 830.181 149.716 817.601 149.716H771.203ZM757.439 199V45.8201H788.297V199H757.439Z" fill="url(#paint3_linear_4880_17421)"/>
<path d="M973.693 199L925.519 45.8201H955.933L1006.33 199H973.693ZM859.807 199L910.201 45.8201H938.839L891.775 199H859.807ZM892.219 161.482V134.176H973.915V161.482H892.219Z" fill="url(#paint4_linear_4880_17421)"/>
<path d="M1090.88 199L1027.17 45.8201H1058.69L1122.4 199H1090.88ZM1010.07 199V45.8201H1039.38V199H1010.07ZM1110.19 199V45.8201H1139.5V199H1110.19Z" fill="url(#paint5_linear_4880_17421)"/>
<path d="M1200.28 148.384L1142.12 45.8201H1176.75L1220.04 124.63L1200.28 148.384ZM1196.28 199V116.638H1226.7V199H1196.28ZM1222.92 148.384L1205.16 124.63L1247.79 45.8201H1281.31L1222.92 148.384Z" fill="url(#paint6_linear_4880_17421)"/>
<path fill-rule="evenodd" clip-rule="evenodd" d="M122.5 245C190.155 245 245 190.155 245 122.5C245 54.8451 190.155 0 122.5 0C54.8451 0 0 54.8451 0 122.5C0 190.155 54.8451 245 122.5 245ZM189.096 175.448L165.841 152.193L160.186 157.691C151.339 166.291 139.286 171.573 125.984 171.573C98.8813 171.573 76.9105 149.603 76.9105 122.5C76.9105 95.3979 98.8813 73.4271 125.984 73.4271C139.603 73.4271 151.914 78.9649 160.814 87.9311L166.471 93.6303L189.747 70.3541L184.123 64.6973C169.282 49.7713 148.706 40.5166 125.984 40.5166C80.7053 40.5166 44 77.2219 44 122.5C44 167.779 80.7053 204.484 125.984 204.484C148.296 204.484 168.54 195.56 183.315 181.104L189.096 175.448Z" fill="url(#paint7_linear_4880_17421)"/>
<defs>
<linearGradient id="paint0_linear_4880_17421" x1="709.65" y1="127.736" x2="960.91" y2="221.683" gradientUnits="userSpaceOnUse">
<stop stop-color="#65ADD3"/>
<stop offset="1" stop-color="#1F87BF"/>
</linearGradient>
<linearGradient id="paint1_linear_4880_17421" x1="709.65" y1="127.736" x2="960.91" y2="221.683" gradientUnits="userSpaceOnUse">
<stop stop-color="#65ADD3"/>
<stop offset="1" stop-color="#1F87BF"/>
</linearGradient>
<linearGradient id="paint2_linear_4880_17421" x1="709.65" y1="127.736" x2="960.91" y2="221.683" gradientUnits="userSpaceOnUse">
<stop stop-color="#65ADD3"/>
<stop offset="1" stop-color="#1F87BF"/>
</linearGradient>
<linearGradient id="paint3_linear_4880_17421" x1="709.65" y1="127.736" x2="960.91" y2="221.683" gradientUnits="userSpaceOnUse">
<stop stop-color="#65ADD3"/>
<stop offset="1" stop-color="#1F87BF"/>
</linearGradient>
<linearGradient id="paint4_linear_4880_17421" x1="709.65" y1="127.736" x2="960.91" y2="221.683" gradientUnits="userSpaceOnUse">
<stop stop-color="#65ADD3"/>
<stop offset="1" stop-color="#1F87BF"/>
</linearGradient>
<linearGradient id="paint5_linear_4880_17421" x1="709.65" y1="127.736" x2="960.91" y2="221.683" gradientUnits="userSpaceOnUse">
<stop stop-color="#65ADD3"/>
<stop offset="1" stop-color="#1F87BF"/>
</linearGradient>
<linearGradient id="paint6_linear_4880_17421" x1="709.65" y1="127.736" x2="960.91" y2="221.683" gradientUnits="userSpaceOnUse">
<stop stop-color="#65ADD3"/>
<stop offset="1" stop-color="#1F87BF"/>
</linearGradient>
<linearGradient id="paint7_linear_4880_17421" x1="115" y1="-82" x2="272.533" y2="-7.35137" gradientUnits="userSpaceOnUse">
<stop stop-color="#65ADD3"/>
<stop offset="1" stop-color="#1F87BF"/>
</linearGradient>
</defs>
</svg>
